<?xml version="1.0" encoding="utf-8"?><svg xmlns="http://www.w3.org/2000/svg" xmlns:xlink="http://www.w3.org/1999/xlink" width="250px" height="250px" viewBox="0 0 100 100" preserveAspectRatio="xMidYMid" style="margin-right:-2px;display:block;background-repeat-y:initial;background-repeat-x:initial;background-color:rgb(255, 255, 255);animation-play-state:paused" ><g transform="rotate(0 50 50)" style="transform:matrix(1, 0, 0, 1, 0, 0);animation-play-state:paused" ><rect x="46.5" y="25" rx="3.5" ry="8" width="7" height="16" fill="#fe718d" opacity="0.0909089" style="opacity:0.0909089;animation-play-state:paused" ></rect></g>
<g transform="rotate(32.72727272727273 50 50)" style="transform:matrix(0.841254, 0.540641, -0.540641, 0.841254, 34.9694, -19.0947);animation-play-state:paused" ><rect x="46.5" y="25" rx="3.5" ry="8" width="7" height="16" fill="#f47e60" opacity="0.181818" style="opacity:0.181818;animation-play-state:paused" ></rect></g>
<g transform="rotate(65.45454545454545 50 50)" style="transform:matrix(0.415415, 0.909632, -0.909632, 0.415415, 74.7108, -16.2524);animation-play-state:paused" ><rect x="46.5" y="25" rx="3.5" ry="8" width="7" height="16" fill="#f8b26a" opacity="0.272727" style="opacity:0.272727;animation-play-state:paused" ></rect></g>
<g transform="rotate(98.18181818181819 50 50)" style="transform:matrix(-0.142315, 0.989821, -0.989821, -0.142315, 106.607, 7.62467);animation-play-state:paused" ><rect x="46.5" y="25" rx="3.5" ry="8" width="7" height="16" fill="#abbd81" opacity="0.363637" style="opacity:0.363637;animation-play-state:paused" ></rect></g>
<g transform="rotate(130.9090909090909 50 50)" style="transform:matrix(-0.654861, 0.75575, -0.75575, -0.654861, 120.531, 44.9556);animation-play-state:paused" ><rect x="46.5" y="25" rx="3.5" ry="8" width="7" height="16" fill="#849b87" opacity="0.454546" style="opacity:0.454546;animation-play-state:paused" ></rect></g>
<g transform="rotate(163.63636363636363 50 50)" style="transform:matrix(-0.959493, 0.281732, -0.281732, -0.959493, 112.061, 83.888);animation-play-state:paused" ><rect x="46.5" y="25" rx="3.5" ry="8" width="7" height="16" fill="#6492ac" opacity="0.545454" style="opacity:0.545454;animation-play-state:paused" ></rect></g>
<g transform="rotate(196.36363636363637 50 50)" style="transform:matrix(-0.959493, -0.281732, 0.281732, -0.959493, 83.888, 112.061);animation-play-state:paused" ><rect x="46.5" y="25" rx="3.5" ry="8" width="7" height="16" fill="#637cb5" opacity="0.636363" style="opacity:0.636363;animation-play-state:paused" ></rect></g>
<g transform="rotate(229.0909090909091 50 50)" style="transform:matrix(-0.654861, -0.75575, 0.75575, -0.654861, 44.9556, 120.531);animation-play-state:paused" ><rect x="46.5" y="25" rx="3.5" ry="8" width="7" height="16" fill="#6a63b6" opacity="0.727273" style="opacity:0.727273;animation-play-state:paused" ></rect></g>
<g transform="rotate(261.8181818181818 50 50)" style="transform:matrix(-0.142315, -0.989821, 0.989821, -0.142315, 7.62468, 106.607);animation-play-state:paused" ><rect x="46.5" y="25" rx="3.5" ry="8" width="7" height="16" fill="#fe718d" opacity="0.818182" style="opacity:0.818182;animation-play-state:paused" ></rect></g>
<g transform="rotate(294.54545454545456 50 50)" style="transform:matrix(0.415415, -0.909632, 0.909632, 0.415415, -16.2523, 74.7109);animation-play-state:paused" ><rect x="46.5" y="25" rx="3.5" ry="8" width="7" height="16" fill="#f47e60" opacity="0.909091" style="opacity:0.909091;animation-play-state:paused" ></rect></g>
<g transform="rotate(327.27272727272725 50 50)" style="transform:matrix(0.841254, -0.540641, 0.540641, 0.841254, -19.0947, 34.9694);animation-play-state:paused" ><rect x="46.5" y="25" rx="3.5" ry="8" width="7" height="16" fill="#f8b26a" opacity="1" style="animation-play-state:paused" ></rect></g><!-- generated by https://loading.io/ --></svg>